<svg xmlns="http://www.w3.org/2000/svg" viewBox="0 0 512 512" id="marketing-chat">
  <path d="M352,298.431V235.646a8.34,8.34,0,0,0-11.188-7.555L200.65,284H131.43a36.449,36.449,0,0,0-31.887,19.09l-6.022,2.164a40.91,40.91,0,0,0,0,77.235l4.068,1.427a36.51,36.51,0,0,0,17.446,19.255l14.435,93.269a8.216,8.216,0,0,0,7.862,7.015l57.3.545h.043a8.238,8.238,0,0,0,6.065-3.021,8.376,8.376,0,0,0,1.838-6.627L188.9,407h11.75l140.09,56.088a8.017,8.017,0,0,0,2.971.6,8.445,8.445,0,0,0,4.63-1.363A8.115,8.115,0,0,0,352,455.712V389.39c24-.5,44.58-20.7,44.58-45.479S376,298.926,352,298.431ZM81.989,343.906A24.731,24.731,0,0,1,95,322.05v43.722A24.737,24.737,0,0,1,81.989,343.906ZM111,320.56A20.655,20.655,0,0,1,131.43,300H194v91H131.43a20.2,20.2,0,0,1-5.3-.673,8.254,8.254,0,0,0-2.8-.915A20.349,20.349,0,0,1,111,370.8Zm74.316,166.863-41.076-.246L131.835,407h40.87ZM336,443.9,210,393.687V297.671l126-50.208Zm16-70.506V314.431a29.494,29.494,0,0,1,0,58.959Z"></path>
  <path d="M437.886,8H188.827C184.409,8,181,12.056,181,16.475V29H88.381C83.962,29,80,32.5,80,36.921V207.163c0,4.419,3.962,7.837,8.381,7.837H134v21.294a8.21,8.21,0,0,0,4.46,7.062,8.425,8.425,0,0,0,3.869.938,8.261,8.261,0,0,0,4.522-1.444L188.159,215h98.673A8.008,8.008,0,0,0,295,207.163V176h56.077l51.265,50.456a7.875,7.875,0,0,0,5.628,2.189,8.208,8.208,0,0,0,8.03-8.123V176h21.886c4.418,0,8.114-4.074,8.114-8.492V16.475C446,12.056,442.3,8,437.886,8ZM279,199H185.717a8.8,8.8,0,0,0-4.687,1.445L150,221.266v-14.1c0-4.418-3.143-8.163-7.561-8.163H96V45h85V167.508c0,4.418,3.409,8.492,7.827,8.492H279Zm151-39H407.968c-4.419,0-7.968,3.089-7.968,7.508v33.85l-39.993-39.292A7.816,7.816,0,0,0,354.365,160H197V24H430Z"></path>
</svg>
